<svg xmlns="http://www.w3.org/2000/svg" viewBox="0 0 640 640" role="img" aria-label="Coupang">
  <rect width="640" height="640" rx="48" fill="#ffffff"/>
  <rect x="28" y="28" width="584" height="584" rx="38" fill="#ffffff" stroke="#e5e7eb" stroke-width="20"/>
  <path d="M175 272c18-62 73-106 144-106 76 0 132 42 151 104l-70 22c-13-34-40-55-80-55-55 0-91 38-91 91s36 91 91 91c40 0 68-21 82-56l69 23c-20 63-78 105-153 105-90 0-160-68-160-163 0-20 6-41 17-56z" fill="#d92d20"/>
  <text x="320" y="524" text-anchor="middle" font-family="Arial, Helvetica, sans-serif" font-size="49" font-weight="900" fill="#1d4ed8">COUPANG</text>
</svg>
